HIERARCHY
ROOT Hips
{
	OFFSET 0.000000 0.000000 0.000000
	CHANNELS 6 Xposition Yposition Zposition Xrotation Yrotation Zrotation
	JOINT LeftUpLeg_virtual
	{
		OFFSET 0.000000 0.000000 0.000000
		CHANNELS 3 Xrotation Yrotation Zrotation
		JOINT LeftUpLeg
		{
			OFFSET 13.026900 -6.336304 -1.092800
			CHANNELS 3 Xrotation Yrotation Zrotation
			JOINT LeftLeg
			{
				OFFSET 0.524474 -46.096886 9.782700
				CHANNELS 3 Xrotation Yrotation Zrotation
				JOINT LeftFoot
				{
					OFFSET -0.524474 -53.427422 -12.948200
					CHANNELS 3 Xrotation Yrotation Zrotation
					JOINT LeftToeBase
					{
						OFFSET 0.192200 -14.009700 16.364100
						CHANNELS 3 Xrotation Yrotation Zrotation
						JOINT LeftToe_End
						{
							OFFSET -1.784700 -0.561700 9.474800
							CHANNELS 3 Xrotation Yrotation Zrotation
							End Site
							{
								OFFSET 0 0 0
							}
						}
					}
				}
			}
		}
	}
	JOINT RightUpLeg_virtual
	{
		OFFSET 0.000000 0.000000 0.000000
		CHANNELS 3 Xrotation Yrotation Zrotation
		JOINT RightUpLeg
		{
			OFFSET -12.883000 -6.336304 -1.092800
			CHANNELS 3 Xrotation Yrotation Zrotation
			JOINT RightLeg
			{
				OFFSET -0.524587 -46.096825 9.782800
				CHANNELS 3 Xrotation Yrotation Zrotation
				JOINT RightFoot
				{
					OFFSET 0.524587 -53.427383 -12.948300
					CHANNELS 3 Xrotation Yrotation Zrotation
					JOINT RightToeBase
					{
						OFFSET -0.192200 -14.009700 16.364100
						CHANNELS 3 Xrotation Yrotation Zrotation
						JOINT RightToe_End
						{
							OFFSET 1.784700 -0.561700 9.474800
							CHANNELS 3 Xrotation Yrotation Zrotation
							End Site
							{
								OFFSET 0 0 0
							}
						}
					}
				}
			}
		}
	}
	JOINT Spine_virtual
	{
		OFFSET 0.000000 0.000000 0.000000
		CHANNELS 3 Xrotation Yrotation Zrotation
		JOINT Spine
		{
			OFFSET 0.072000 7.257294 -0.789700
			CHANNELS 3 Xrotation Yrotation Zrotation
			JOINT Spine1
			{
				OFFSET 0.000000 12.508769 -0.658067
				CHANNELS 3 Xrotation Yrotation Zrotation
				JOINT Spine1_split
				{
					OFFSET 0.000000 12.508769 -0.658067
					CHANNELS 3 Xrotation Yrotation Zrotation
					JOINT Spine2
					{
						OFFSET 0.000000 12.508769 -0.658067
						CHANNELS 3 Xrotation Yrotation Zrotation
						JOINT Neck_virtual
						{
							OFFSET 0.000000 0.000000 0.000000
							CHANNELS 3 Xrotation Yrotation Zrotation
							JOINT Neck
							{
								OFFSET 0.000000 14.033295 7.520400
								CHANNELS 3 Xrotation Yrotation Zrotation
								JOINT Head
								{
									OFFSET 0.000000 8.198502 5.703100
									CHANNELS 3 Xrotation Yrotation Zrotation
									JOINT HeadTop_End
									{
										OFFSET 0.000000 17.760803 13.332701
										CHANNELS 3 Xrotation Yrotation Zrotation
										End Site
										{
											OFFSET 0 0 0
										}
									}
								}
							}
						}
						JOINT LeftShoulder_virtual
						{
							OFFSET 0.000000 0.000000 0.000000
							CHANNELS 3 Xrotation Yrotation Zrotation
							JOINT LeftShoulder
							{
								OFFSET 6.292450 5.785301 -0.669000
								CHANNELS 3 Xrotation Yrotation Zrotation
								JOINT LeftShoulder_split
								{
									OFFSET 6.292450 5.785301 -0.669000
									CHANNELS 3 Xrotation Yrotation Zrotation
									JOINT LeftArm
									{
										OFFSET 13.907140 -6.093903 1.965100
										CHANNELS 3 Xrotation Yrotation Zrotation
										JOINT LeftForeArm
										{
											OFFSET 34.140198 0.000000 0.000000
											CHANNELS 3 Xrotation Yrotation Zrotation
											JOINT LeftHand
											{
												OFFSET 40.960209 0.000000 0.000000
												CHANNELS 3 Xrotation Yrotation Zrotation
												End Site
												{
													OFFSET 0 0 0
												}
											}
										}
									}
								}
							}
						}
						JOINT RightShoulder_virtual
						{
							OFFSET 0.000000 0.000000 0.000000
							CHANNELS 3 Xrotation Yrotation Zrotation
							JOINT RightShoulder
							{
								OFFSET -6.292450 5.785301 -0.669000
								CHANNELS 3 Xrotation Yrotation Zrotation
								JOINT RightShoulder_split
								{
									OFFSET -6.292450 5.785301 -0.669000
									CHANNELS 3 Xrotation Yrotation Zrotation
									JOINT RightArm
									{
										OFFSET -13.907140 -6.093903 1.965100
										CHANNELS 3 Xrotation Yrotation Zrotation
										JOINT RightForeArm
										{
											OFFSET -34.140198 0.000000 0.000000
											CHANNELS 3 Xrotation Yrotation Zrotation
											JOINT RightHand
											{
												OFFSET -40.960209 0.000000 0.000000
												CHANNELS 3 Xrotation Yrotation Zrotation
												End Site
												{
													OFFSET 0 0 0
												}
											}
										}
									}
								}
							}
						}
					}
				}
			}
		}
	}
}
MOTION
Frames: 6
Frame Time: 0.03333333
4.972096 116.657127 0.685257 0.000000 0.000000 0.000000 -29.197662 -47.131755 -21.316283 -2.024494 16.752680 -0.968625 26.795139 3.394293 3.772176 -3.741321 5.352570 -3.361277 -2.499311 -1.860099 0.480910 0.000000 0.000000 0.000000 -27.171548 -45.214917 -19.992179 8.042623 -9.377762 -1.654681 21.185792 14.270236 -3.104554 -14.542721 -23.101491 9.266274 -3.219900 4.165212 -11.737193 0.000000 0.000000 0.000000 -29.450901 -42.393017 -22.438083 8.020476 -1.880623 -1.166861 3.472262 -0.688661 -1.217713 0.126185 -0.039751 0.014546 0.000000 0.000000 0.000000 6.872815 0.423307 -0.575034 4.106712 5.271171 1.874942 -15.534316 -10.283867 11.236465 0.000000 0.000000 0.000000 5.625875 -1.141290 -1.034066 4.182334 -5.439727 -11.058657 6.201331 -7.937281 0.574151 -31.136794 7.094878 -31.938391 7.413982 -48.967911 4.398200 0.000000 0.000000 0.000000 4.002528 -1.362577 -0.048233 -2.256761 8.898855 17.801831 1.733035 -1.372325 -0.096719 -12.018185 2.828884 58.617606 -7.809652 36.960957 2.384626 0.000000 0.000000 0.000000 
5.673061 116.793808 1.706442 0.000000 0.000000 0.000000 -31.322349 -49.974606 -23.687719 -0.986004 17.748694 -1.468208 25.464902 3.522662 3.571237 -3.982825 6.601021 -1.629310 -1.341946 -1.575538 0.426688 0.000000 0.000000 0.000000 -28.969810 -47.805402 -22.088552 6.986797 -9.463643 -2.208375 21.172965 14.250418 -3.189257 -12.834548 -22.549002 9.726064 -4.250271 4.358963 -11.594588 0.000000 0.000000 0.000000 -31.427500 -45.047625 -24.715847 8.290964 -1.847556 -1.409730 3.346452 -0.705788 -1.271556 0.120983 -0.062252 0.018171 0.000000 0.000000 0.000000 6.807543 0.414343 -0.547680 4.117297 5.426369 1.736889 -15.722370 -9.564378 11.168995 0.000000 0.000000 0.000000 5.544813 -1.129743 -1.012813 4.235529 -5.368373 -10.922730 6.024585 -7.992027 0.459445 -31.003089 7.241265 -31.811473 7.250026 -48.799277 4.323085 0.000000 0.000000 0.000000 3.946019 -1.385472 -0.043886 -2.272345 9.023940 18.013043 2.047578 -1.353213 -0.073262 -12.525282 3.033119 58.761026 -7.914045 36.653360 2.183105 0.000000 0.000000 0.000000 
6.380171 116.899239 2.762901 0.000000 0.000000 0.000000 -33.766498 -52.571471 -26.307922 0.244956 18.473893 -1.961317 24.295022 3.347697 3.358434 -4.412083 7.579602 -0.497012 -0.726007 -1.309665 0.351283 0.000000 0.000000 0.000000 -31.033507 -50.382563 -24.402978 6.001526 -9.632159 -2.632042 21.281350 13.776103 -3.145063 -11.628407 -22.061287 9.484112 -4.864502 4.477433 -11.128073 0.000000 0.000000 0.000000 -33.546775 -47.564980 -27.191478 8.457454 -1.862429 -1.648421 3.228861 -0.728848 -1.298629 0.138483 -0.083362 0.024338 0.000000 0.000000 0.000000 6.781989 0.395962 -0.502063 4.156389 5.600520 1.597703 -15.995507 -8.822955 11.129830 0.000000 0.000000 0.000000 5.542532 -1.122350 -0.961794 4.331446 -5.208441 -10.726103 5.894384 -8.073790 0.278815 -30.941962 7.341854 -31.773220 7.127525 -48.735852 4.293437 0.000000 0.000000 0.000000 3.966652 -1.411956 -0.039406 -2.269089 9.146224 18.182039 2.411568 -1.185890 0.029967 -12.985883 3.177095 58.860794 -7.992273 36.417988 1.962158 0.000000 0.000000 0.000000 
7.080582 116.965233 3.753225 0.000000 0.000000 0.000000 -36.475334 -54.854274 -29.179948 1.466624 19.044550 -2.336246 23.386800 3.012634 3.115550 -4.898272 8.226523 0.097616 -0.653259 -1.054149 0.208636 0.000000 0.000000 0.000000 -33.364774 -52.893887 -26.989351 5.091780 -9.762237 -2.827941 21.555847 12.860613 -2.981899 -10.954812 -21.649084 8.595608 -4.879846 4.493212 -10.355879 0.000000 0.000000 0.000000 -35.747434 -49.896253 -29.806457 8.506132 -1.928707 -1.852822 3.117636 -0.758098 -1.312221 0.165288 -0.107904 0.036078 0.000000 0.000000 0.000000 6.813672 0.374090 -0.452944 4.204211 5.779674 1.500094 -16.300275 -8.100154 11.185598 0.000000 0.000000 0.000000 5.618041 -1.120398 -0.899698 4.460020 -4.966887 -10.488162 5.847285 -8.162225 0.095723 -30.967511 7.402206 -31.819160 7.075378 -48.742258 4.320554 0.000000 0.000000 0.000000 4.040240 -1.442307 -0.042753 -2.259422 9.264142 18.341910 2.811642 -0.912723 0.116720 -13.369435 3.259162 58.899911 -8.037359 36.242616 1.729190 0.000000 0.000000 0.000000 
7.775129 117.001190 4.657927 0.000000 0.000000 0.000000 -39.296684 -56.864515 -32.243807 2.704726 19.706424 -2.590205 22.731098 2.797922 2.838575 -5.566122 8.578868 0.663321 -0.729010 -0.859241 0.083407 0.000000 0.000000 0.000000 -35.869944 -55.246436 -29.785881 4.238208 -9.729769 -2.805156 22.096630 11.709779 -2.729296 -10.663874 -21.227441 7.544395 -4.633871 4.448358 -9.381027 0.000000 0.000000 0.000000 -37.920589 -51.994245 -32.442886 8.483046 -2.044349 -1.997870 3.011588 -0.787493 -1.336151 0.178852 -0.140389 0.055267 0.000000 0.000000 0.000000 6.908033 0.350780 -0.417934 4.239241 5.949955 1.467310 -16.600730 -7.424397 11.375491 0.000000 0.000000 0.000000 5.743069 -1.124608 -0.848566 4.611431 -4.654111 -10.235063 5.890579 -8.269037 -0.052042 -31.091130 7.429366 -31.923601 7.073126 -48.781341 4.387193 0.000000 0.000000 0.000000 4.124811 -1.481687 -0.059066 -2.257503 9.359214 18.510595 3.244993 -0.630559 0.160916 -13.675615 3.297507 58.909132 -8.055713 36.129003 1.511372 0.000000 0.000000 0.000000 
8.388041 117.003441 5.413502 0.000000 0.000000 0.000000 -42.232822 -58.731103 -35.513633 3.806989 20.665391 -2.649614 22.346612 2.735861 2.483709 -6.433355 8.622888 1.316126 -0.335847 -0.735241 0.015131 0.000000 0.000000 0.000000 -38.531016 -57.371724 -32.785816 3.435343 -9.503209 -2.612498 23.113956 10.450934 -2.437211 -10.593997 -20.805402 6.736382 -4.432125 4.363481 -8.358022 0.000000 0.000000 0.000000 -40.008369 -53.869907 -35.020921 8.472447 -2.216086 -2.080078 2.902578 -0.811601 -1.379648 0.186423 -0.180743 0.059490 0.000000 0.000000 0.000000 7.041083 0.328058 -0.405851 4.249242 6.103209 1.496376 -16.875313 -6.810857 11.707051 0.000000 0.000000 0.000000 5.889790 -1.132025 -0.824851 4.779619 -4.290896 -10.022015 5.999555 -8.447579 -0.112165 -31.306374 7.433957 -32.057582 7.094717 -48.834094 4.475040 0.000000 0.000000 0.000000 4.188980 -1.532175 -0.093249 -2.268507 9.401277 18.671835 3.685034 -0.347816 0.142291 -13.902808 3.322394 58.950420 -8.052572 36.069307 1.330679 0.000000 0.000000 0.000000 
